<svg xmlns="http://www.w3.org/2000/svg" width="1600" height="900" viewBox="0 0 1600 900"><defs><linearGradient id="bg" x1="0" y1="0" x2="1" y2="1"><stop offset="0%" stop-color="#0F172A"/><stop offset="100%" stop-color="#111827"/></linearGradient><linearGradient id="acc" x1="0" y1="0" x2="1" y2="1"><stop offset="0%" stop-color="#2563EB"/><stop offset="100%" stop-color="#38BDF8"/></linearGradient></defs><rect width="100%" height="100%" fill="url(#bg)"/><rect x="28" y="28" width="1544" height="844" rx="32" fill="none" stroke="rgba(255,255,255,0.16)" stroke-width="2"/><rect x="58" y="62" width="220" height="16" rx="8" fill="url(#acc)"/><circle cx="150" cy="730" r="24" fill="#2563EB" fill-opacity="0.9"/><line x1="178" y1="730" x2="342" y2="730" stroke="rgba(255,255,255,0.25)" stroke-width="6" stroke-linecap="round"/><circle cx="370" cy="730" r="24" fill="#2563EB" fill-opacity="0.9"/><line x1="398" y1="730" x2="562" y2="730" stroke="rgba(255,255,255,0.25)" stroke-width="6" stroke-linecap="round"/><circle cx="590" cy="730" r="24" fill="#2563EB" fill-opacity="0.9"/><line x1="618" y1="730" x2="782" y2="730" stroke="rgba(255,255,255,0.25)" stroke-width="6" stroke-linecap="round"/><circle cx="810" cy="730" r="24" fill="#2563EB" fill-opacity="0.9"/><line x1="838" y1="730" x2="1002" y2="730" stroke="rgba(255,255,255,0.25)" stroke-width="6" stroke-linecap="round"/><circle cx="1030" cy="730" r="24" fill="#2563EB" fill-opacity="0.9"/><line x1="1058" y1="730" x2="1222" y2="730" stroke="rgba(255,255,255,0.25)" stroke-width="6" stroke-linecap="round"/><circle cx="1250" cy="730" r="24" fill="#2563EB" fill-opacity="0.9"/><text x="88" y="170" font-family="Arial, Helvetica, sans-serif" font-size="52" font-weight="700" fill="#F8FAFC">Walkthrough 1</text><text x="88" y="230" font-family="Arial, Helvetica, sans-serif" font-size="25" fill="#CBD5E1">Campo e primeira punção</text></svg>