<svg xmlns="http://www.w3.org/2000/svg" width="1600" height="900" viewBox="0 0 1600 900"><defs><linearGradient id="bg" x1="0" y1="0" x2="1" y2="1"><stop offset="0%" stop-color="#0F172A"/><stop offset="100%" stop-color="#111827"/></linearGradient><linearGradient id="acc" x1="0" y1="0" x2="1" y2="1"><stop offset="0%" stop-color="#06B6D4"/><stop offset="100%" stop-color="#38BDF8"/></linearGradient></defs><rect width="100%" height="100%" fill="url(#bg)"/><rect x="28" y="28" width="1544" height="844" rx="32" fill="none" stroke="rgba(255,255,255,0.16)" stroke-width="2"/><rect x="58" y="62" width="220" height="16" rx="8" fill="url(#acc)"/><rect x="100" y="170" width="170" height="80" rx="16" fill="rgba(255,255,255,0.06)"/><rect x="100" y="290" width="170" height="80" rx="16" fill="rgba(255,255,255,0.08)"/><rect x="100" y="410" width="170" height="80" rx="16" fill="rgba(255,255,255,0.1)"/><rect x="310" y="170" width="170" height="80" rx="16" fill="rgba(255,255,255,0.08)"/><rect x="310" y="290" width="170" height="80" rx="16" fill="rgba(255,255,255,0.1)"/><rect x="310" y="410" width="170" height="80" rx="16" fill="rgba(255,255,255,0.12)"/><rect x="520" y="170" width="170" height="80" rx="16" fill="rgba(255,255,255,0.1)"/><rect x="520" y="290" width="170" height="80" rx="16" fill="rgba(255,255,255,0.12)"/><rect x="520" y="410" width="170" height="80" rx="16" fill="rgba(255,255,255,0.14)"/><rect x="730" y="170" width="170" height="80" rx="16" fill="rgba(255,255,255,0.12)"/><rect x="730" y="290" width="170" height="80" rx="16" fill="rgba(255,255,255,0.14)"/><rect x="730" y="410" width="170" height="80" rx="16" fill="rgba(255,255,255,0.16)"/><text x="88" y="170" font-family="Arial, Helvetica, sans-serif" font-size="52" font-weight="700" fill="#F8FAFC">PICC vs CVC</text><text x="88" y="230" font-family="Arial, Helvetica, sans-serif" font-size="25" fill="#CBD5E1">Conforto, velocidade, custo</text></svg>