<svg xmlns="http://www.w3.org/2000/svg" width="1600" height="900" viewBox="0 0 1600 900"><defs><linearGradient id="bg" x1="0" y1="0" x2="1" y2="1"><stop offset="0%" stop-color="#0F172A"/><stop offset="100%" stop-color="#111827"/></linearGradient><linearGradient id="acc" x1="0" y1="0" x2="1" y2="1"><stop offset="0%" stop-color="#22C55E"/><stop offset="100%" stop-color="#38BDF8"/></linearGradient></defs><rect width="100%" height="100%" fill="url(#bg)"/><rect x="28" y="28" width="1544" height="844" rx="32" fill="none" stroke="rgba(255,255,255,0.16)" stroke-width="2"/><rect x="58" y="62" width="220" height="16" rx="8" fill="url(#acc)"/><line x1="60" y1="0" x2="60" y2="900" stroke="rgba(255,255,255,0.05)" stroke-width="1"/><line x1="180" y1="0" x2="180" y2="900" stroke="rgba(255,255,255,0.05)" stroke-width="1"/><line x1="300" y1="0" x2="300" y2="900" stroke="rgba(255,255,255,0.05)" stroke-width="1"/><line x1="420" y1="0" x2="420" y2="900" stroke="rgba(255,255,255,0.05)" stroke-width="1"/><line x1="540" y1="0" x2="540" y2="900" stroke="rgba(255,255,255,0.05)" stroke-width="1"/><line x1="660" y1="0" x2="660" y2="900" stroke="rgba(255,255,255,0.05)" stroke-width="1"/><line x1="780" y1="0" x2="780" y2="900" stroke="rgba(255,255,255,0.05)" stroke-width="1"/><line x1="900" y1="0" x2="900" y2="900" stroke="rgba(255,255,255,0.05)" stroke-width="1"/><line x1="1020" y1="0" x2="1020" y2="900" stroke="rgba(255,255,255,0.05)" stroke-width="1"/><line x1="1140" y1="0" x2="1140" y2="900" stroke="rgba(255,255,255,0.05)" stroke-width="1"/><line x1="1260" y1="0" x2="1260" y2="900" stroke="rgba(255,255,255,0.05)" stroke-width="1"/><line x1="1380" y1="0" x2="1380" y2="900" stroke="rgba(255,255,255,0.05)" stroke-width="1"/><line x1="1500" y1="0" x2="1500" y2="900" stroke="rgba(255,255,255,0.05)" stroke-width="1"/><line x1="0" y1="60" x2="1600" y2="60" stroke="rgba(255,255,255,0.05)" stroke-width="1"/><line x1="0" y1="180" x2="1600" y2="180" stroke="rgba(255,255,255,0.05)" stroke-width="1"/><line x1="0" y1="300" x2="1600" y2="300" stroke="rgba(255,255,255,0.05)" stroke-width="1"/><line x1="0" y1="420" x2="1600" y2="420" stroke="rgba(255,255,255,0.05)" stroke-width="1"/><line x1="0" y1="540" x2="1600" y2="540" stroke="rgba(255,255,255,0.05)" stroke-width="1"/><line x1="0" y1="660" x2="1600" y2="660" stroke="rgba(255,255,255,0.05)" stroke-width="1"/><line x1="0" y1="780" x2="1600" y2="780" stroke="rgba(255,255,255,0.05)" stroke-width="1"/><text x="88" y="170" font-family="Arial, Helvetica, sans-serif" font-size="52" font-weight="700" fill="#F8FAFC">Code 3</text><text x="88" y="230" font-family="Arial, Helvetica, sans-serif" font-size="25" fill="#CBD5E1">bundle de confirmação</text></svg>