<svg xmlns="http://www.w3.org/2000/svg" width="1600" height="900" viewBox="0 0 1600 900"><defs><linearGradient id="bg" x1="0" y1="0" x2="1" y2="1"><stop offset="0%" stop-color="#0F172A"/><stop offset="100%" stop-color="#111827"/></linearGradient><linearGradient id="acc" x1="0" y1="0" x2="1" y2="1"><stop offset="0%" stop-color="#2563EB"/><stop offset="100%" stop-color="#38BDF8"/></linearGradient></defs><rect width="100%" height="100%" fill="url(#bg)"/><rect x="28" y="28" width="1544" height="844" rx="32" fill="none" stroke="rgba(255,255,255,0.16)" stroke-width="2"/><rect x="58" y="62" width="220" height="16" rx="8" fill="url(#acc)"/><rect x="120" y="150" width="300" height="44" rx="18" fill="rgba(255,255,255,0.08)"/><rect x="120" y="236" width="300" height="44" rx="18" fill="rgba(255,255,255,0.10500000000000001)"/><rect x="120" y="322" width="300" height="44" rx="18" fill="rgba(255,255,255,0.13)"/><rect x="120" y="408" width="300" height="44" rx="18" fill="rgba(255,255,255,0.15500000000000003)"/><rect x="120" y="494" width="300" height="44" rx="18" fill="rgba(255,255,255,0.18)"/><rect x="120" y="580" width="300" height="44" rx="18" fill="rgba(255,255,255,0.20500000000000002)"/><rect x="120" y="666" width="300" height="44" rx="18" fill="rgba(255,255,255,0.23000000000000004)"/><text x="88" y="170" font-family="Arial, Helvetica, sans-serif" font-size="52" font-weight="700" fill="#F8FAFC">Checklist pré-procedimento</text><text x="88" y="230" font-family="Arial, Helvetica, sans-serif" font-size="25" fill="#CBD5E1">Indicação, lado, kit, plano B</text></svg>