<svg xmlns="http://www.w3.org/2000/svg" width="1600" height="900" viewBox="0 0 1600 900"><defs><linearGradient id="bg" x1="0" y1="0" x2="1" y2="1"><stop offset="0%" stop-color="#0F172A"/><stop offset="100%" stop-color="#111827"/></linearGradient><linearGradient id="acc" x1="0" y1="0" x2="1" y2="1"><stop offset="0%" stop-color="#8B5CF6"/><stop offset="100%" stop-color="#38BDF8"/></linearGradient></defs><rect width="100%" height="100%" fill="url(#bg)"/><rect x="28" y="28" width="1544" height="844" rx="32" fill="none" stroke="rgba(255,255,255,0.16)" stroke-width="2"/><rect x="58" y="62" width="220" height="16" rx="8" fill="url(#acc)"/><rect x="120" y="160" width="380" height="42" rx="18" fill="rgba(255,255,255,0.08)"/><rect x="120" y="245" width="380" height="42" rx="18" fill="rgba(255,255,255,0.1)"/><rect x="120" y="330" width="380" height="42" rx="18" fill="rgba(255,255,255,0.12)"/><rect x="120" y="415" width="380" height="42" rx="18" fill="rgba(255,255,255,0.14)"/><rect x="120" y="500" width="380" height="42" rx="18" fill="rgba(255,255,255,0.16)"/><rect x="120" y="585" width="380" height="42" rx="18" fill="rgba(255,255,255,0.18)"/><rect x="1050" y="130" width="360" height="360" rx="32" fill="rgba(255,255,255,0.08)"/><line x1="1070" y1="300" x2="1390" y2="300" stroke="#8B5CF6" stroke-width="6"/><line x1="1230" y1="145" x2="1230" y2="470" stroke="#8B5CF6" stroke-width="6"/><text x="88" y="170" font-family="Arial, Helvetica, sans-serif" font-size="52" font-weight="700" fill="#F8FAFC">Shadowing</text><text x="88" y="230" font-family="Arial, Helvetica, sans-serif" font-size="25" fill="#CBD5E1">Sombra que parece parede</text></svg>